Coordinates
version=1
nRows=31
nColumns=33
inDegrees=yes

Units are S.I. units (second, meters, Newtons, ...)
Angles are in degrees.

endheader
time	ground_thorax_rot_x	ground_thorax_rot_y	ground_thorax_rot_z	ground_thorax_tx	ground_thorax_ty	ground_thorax_tz	clav_prot_r	clav_elev_r	scapula_abduction_r	scapula_elevation_r	scapula_upward_rot_r	scapula_winging_r	shoulder_elv_r	plane_of_elev_r	axial_rot_r	elbow_flexion_r	pro_sup_r	wrist_flex_r	wrist_dev_r	clav_prot_l	clav_elev_l	scapula_abduction_l	scapula_elevation_l	scapula_upward_rot_l	scapula_winging_l	shoulder_elv_l	plane_of_elev_l	axial_rot_l	elbow_flexion_l	pro_sup_l	wrist_flex_l	wrist_dev_l	
6.0700	26.317046	28.043790	39.783054	-101.119696	789.012411	-8.212407	12.811262	38.558964	35.747470	43.990961	-33.344047	-1884.186923	-2280.405766	147.975385	-126.369202	1453.498583	37.091606	18.258853	9.637774	8.423932	-45.000000	-38.838745	45.000000	-45.000000	2251.201835	-4779.088785	137.199265	-180.000000	365.833424	41.728566	11.521722	-21.730178	
6.0800	26.518568	28.001313	39.507790	-103.172500	789.517519	-8.189353	12.850723	38.711119	35.751080	44.202609	-33.405818	-1884.183214	-2280.249385	147.902500	-126.591594	1453.626936	37.490045	18.309046	9.549058	8.420994	-45.000000	-38.837484	45.000000	-45.000000	2251.272457	-4778.939733	137.140264	-180.000000	366.000635	41.415241	11.540014	-21.780325	
6.0900	26.727129	27.947704	39.220983	-105.272652	790.042852	-8.163178	12.887855	38.854008	35.758922	44.402638	-33.463384	-1884.186506	-2280.089731	147.830678	-126.813621	1453.749891	37.876008	18.357546	9.461655	8.417319	-45.000000	-38.834778	45.000000	-45.000000	2251.346842	-4778.781143	137.077199	-180.000000	366.168747	41.106110	11.553597	-21.830509	
6.1000	26.944626	27.877049	38.915533	-107.419337	790.589646	-8.133889	12.918527	38.984134	35.775129	44.583367	-33.499983	-1884.206504	-2279.930533	147.762874	-127.021653	1453.867226	38.253113	18.404935	9.376962	8.410946	-45.000000	-38.824456	45.000000	-45.000000	2251.419233	-4778.609723	137.010642	-180.000000	366.338116	40.802645	11.558403	-21.879629	
6.1100	27.170358	27.786162	38.590880	-109.611931	791.159330	-8.101361	12.941422	39.094846	35.804994	44.736331	-33.512243	-1884.249847	-2279.769959	147.700070	-127.216412	1453.978355	38.622774	18.450897	9.295007	8.402677	-45.000000	-38.809665	45.000000	-45.000000	2251.496226	-4778.426254	136.937315	-180.000000	366.512590	40.505582	11.554605	-21.929454	
6.1200	27.403946	27.669575	38.242133	-111.849609	791.753413	-8.065558	12.953345	39.181819	35.852191	44.853623	-33.487565	-1884.323451	-2279.611129	147.644015	-127.390356	1454.083129	38.985767	18.495882	9.217278	8.391255	-45.000000	-38.787487	45.000000	-45.000000	2251.575296	-4778.228326	136.856934	-180.000000	366.690127	40.215092	11.539832	-21.978819	
6.1300	27.641493	27.528026	37.873772	-114.130980	792.373389	-8.026639	12.955668	39.246336	35.915910	44.931737	-33.430032	-1884.427749	-2279.451056	147.594305	-127.545700	1454.183132	39.342603	18.538973	9.141372	8.377551	-45.000000	-38.762992	45.000000	-45.000000	2251.661641	-4778.017014	136.768905	-180.000000	366.872321	39.929402	11.515992	-22.028736	
6.1400	27.881426	27.364415	37.489180	-116.454118	793.020804	-7.984902	12.949599	39.294063	35.992842	44.975894	-33.342202	-1884.558988	-2279.290033	147.550486	-127.683298	1454.280777	39.694504	18.579698	9.065293	8.361641	-45.000000	-38.738071	45.000000	-45.000000	2251.754789	-4777.795257	136.675564	-180.000000	367.057060	39.645932	11.484018	-22.078511	
6.1500	28.121865	27.184523	37.097792	-118.816604	793.697294	-7.940654	12.939164	39.333098	36.078814	44.994945	-33.239478	-1884.708911	-2279.122223	147.509859	-127.815024	1454.379541	40.042090	18.617346	8.985406	8.344600	-45.000000	-38.719532	45.000000	-45.000000	2251.861246	-4777.569913	136.577142	-180.000000	367.245287	39.361905	11.448062	-22.129722	
6.1600	28.361273	26.993504	36.702161	-121.215722	794.404649	-7.894049	12.925768	39.365909	36.169539	45.000000	-33.129405	-1884.869380	-2278.950279	147.472456	-127.947005	1454.480644	40.385130	18.652126	8.902251	8.327243	-45.000000	-38.707168	45.000000	-45.000000	2251.975869	-4777.342419	136.476969	-180.000000	367.432512	39.076553	11.408049	-22.180441	
6.1700	28.600401	26.794864	36.306793	-123.648570	795.144779	-7.845003	12.910505	39.395775	36.260691	45.000000	-33.017704	-1885.033779	-2278.774568	147.436597	-128.085895	1454.582759	40.720266	18.683969	8.817077	8.309630	-45.000000	-38.695977	45.000000	-45.000000	2252.096192	-4777.115624	136.378274	-180.000000	367.619451	38.789928	11.362989	-22.230333	
6.1800	28.838966	26.590043	35.908383	-126.112290	795.919679	-7.793182	12.892594	39.422134	36.351479	45.000000	-32.902906	-1885.200080	-2278.598603	147.402183	-128.232668	1454.683985	41.041218	18.713347	8.732585	8.292481	-45.000000	-38.683291	45.000000	-45.000000	2252.217670	-4776.887299	136.280228	-180.000000	367.803366	38.504192	11.311547	-22.278305	
6.1900	29.076257	26.378264	35.508669	-128.604059	796.731253	-7.738117	12.872310	39.445281	36.441436	45.000000	-32.785918	-1885.366695	-2278.421590	147.368116	-128.390193	1454.781680	41.338164	18.740355	8.650715	8.275560	-45.000000	-38.666994	45.000000	-45.000000	2252.339780	-4776.656416	136.183456	-180.000000	367.984080	38.222408	11.253164	-22.324542	
6.2000	29.305306	26.164223	35.108741	-131.121212	797.581131	-7.679388	12.852866	39.465921	36.529418	45.000000	-32.678495	-1885.531287	-2278.238960	147.335191	-128.562765	1454.881554	41.600168	18.766381	8.570135	8.260883	-45.000000	-38.659869	45.000000	-45.000000	2252.460995	-4776.420637	136.089540	-180.000000	368.158034	37.947763	11.190273	-22.368638	
6.2100	29.526799	25.946953	34.710825	-133.661460	798.470513	-7.616845	12.834626	39.485678	36.613861	45.000000	-32.580443	-1885.691798	-2278.049718	147.301510	-128.756513	1454.980631	41.817805	18.791407	8.491986	8.248226	-45.000000	-38.658552	45.000000	-45.000000	2252.582316	-4776.181405	136.000658	-180.000000	368.327379	37.683250	11.121685	-22.411123	
6.2200	29.741311	25.726947	34.312066	-136.223161	799.400019	-7.550783	12.817726	39.503915	36.696136	45.000000	-32.491774	-1885.849399	-2277.852468	147.265908	-128.972544	1455.080397	41.985127	18.815780	8.414919	8.238774	-45.000000	-38.668385	45.000000	-45.000000	2252.706229	-4775.939966	135.914923	-180.000000	368.493338	37.431925	11.048415	-22.453129	
6.2300	29.951478	25.501813	33.912517	-138.805383	800.369544	-7.482021	12.801325	39.519159	36.776905	45.000000	-32.408164	-1886.003500	-2277.649161	147.226984	-129.211747	1455.175679	42.101476	18.838115	8.338747	8.232701	-45.000000	-38.683688	45.000000	-45.000000	2252.835220	-4775.699194	135.831673	-180.000000	368.658289	37.196471	10.969413	-22.495421	
6.2400	30.158700	25.270988	33.507990	-141.407826	801.378129	-7.411869	12.783249	39.532077	36.858521	45.000000	-32.322940	-1886.156534	-2277.442236	147.186106	-129.468617	1455.267624	42.173861	18.859033	8.262104	8.229277	-45.000000	-38.703845	45.000000	-45.000000	2252.968801	-4775.458291	135.749135	-180.000000	368.822008	36.979066	10.883420	-22.538155	
6.2500	30.372752	25.024165	33.089568	-144.030823	802.423980	-7.341949	12.755314	39.539577	36.947162	45.000000	-32.207142	-1886.313554	-2277.246109	147.145635	-129.731181	1455.342845	42.218211	18.877042	8.189280	8.226103	-45.000000	-38.706789	45.000000	-45.000000	2253.105575	-4775.217754	135.662303	-180.000000	368.984163	36.781704	10.784175	-22.580533	
6.2600	30.594895	24.760331	32.655066	-146.675075	803.504452	-7.273938	12.715884	39.540895	37.043883	45.000000	-32.052680	-1886.478708	-2277.064796	147.106124	-129.985299	1455.406402	42.253443	18.891476	8.115767	8.221780	-45.000000	-38.690795	45.000000	-45.000000	2253.246654	-4774.977384	135.569536	-180.000000	369.144975	36.605617	10.671355	-22.622925	
6.2700	30.813725	24.491766	32.216648	-149.341228	804.616053	-7.209282	12.674301	39.541581	37.137388	45.000000	-31.893298	-1886.642822	-2276.882874	147.064807	-130.236710	1455.471829	42.299723	18.902142	8.033361	8.219755	-45.000000	-38.670958	45.000000	-45.000000	2253.389291	-4774.739742	135.479986	-180.000000	369.304278	36.450723	10.550415	-22.665959	
6.2800	31.023488	24.224052	31.779036	-152.029571	805.754561	-7.148954	12.633880	39.546350	37.221865	45.000000	-31.743960	-1886.802280	-2276.692898	147.020894	-130.487960	1455.553793	42.379836	18.910970	7.936881	8.218502	-45.000000	-38.656336	45.000000	-45.000000	2253.530039	-4774.502333	135.400014	-180.000000	369.461022	36.316536	10.422377	-22.709231	
6.2900	31.225376	23.952177	31.340044	-154.739804	806.915138	-7.093327	12.592623	39.553175	37.300183	45.000000	-31.601674	-1886.956144	-2276.499287	146.975884	-130.742166	1455.648890	42.516984	18.917564	7.828228	8.218708	-45.000000	-38.643441	45.000000	-45.000000	2253.669348	-4774.265509	135.327428	-180.000000	369.611803	36.202958	10.286904	-22.752478	
6.3000	31.417901	23.680809	30.904102	-157.471055	808.092559	-7.042182	12.552794	39.561548	37.370185	45.000000	-31.472762	-1887.105027	-2276.299124	146.929897	-130.996007	1455.763581	42.729674	18.920583	7.703499	8.220391	-45.000000	-38.635711	45.000000	-45.000000	2253.810213	-4774.031096	135.263274	-180.000000	369.759124	36.109541	10.145374	-22.796222	
6.3100	31.600032	23.413169	30.474177	-160.221500	809.281264	-6.994882	12.517977	39.569095	37.429989	45.000000	-31.370990	-1887.245431	-2276.086925	146.880140	-131.258332	1455.895436	43.032637	18.917600	7.562242	8.228071	-45.000000	-38.639670	45.000000	-45.000000	2253.956297	-4773.804360	135.207408	-180.000000	369.904444	36.036107	10.001207	-22.841848	
6.3200	31.779120	23.142894	30.043934	-162.988549	810.475665	-6.950604	12.481689	39.575757	37.485161	45.000000	-31.274058	-1887.381924	-2275.873181	146.830784	-131.518673	1456.037554	43.436386	18.908775	7.410080	8.237139	-45.000000	-38.641336	45.000000	-45.000000	2254.105863	-4773.583455	135.157148	-180.000000	370.046587	35.982977	9.848899	-22.887751	
6.3300	31.965402	22.852580	29.598733	-165.768574	811.670238	-6.908613	12.432387	39.573611	37.551193	45.000000	-31.145631	-1887.522764	-2275.683486	146.789312	-131.770764	1456.168400	43.941777	18.891834	7.255843	8.246197	-45.000000	-38.625012	45.000000	-45.000000	2254.264746	-4773.365836	135.095793	-180.000000	370.178832	35.950937	9.685512	-22.933417	
6.3400	32.149883	22.559171	29.152285	-168.557599	812.860014	-6.868407	12.380529	39.566996	37.615506	45.000000	-31.018225	-1887.662326	-2275.500218	146.751335	-132.003965	1456.305397	44.543303	18.868054	7.094310	8.257478	-45.000000	-38.603738	45.000000	-45.000000	2254.429220	-4773.155238	135.036420	-180.000000	370.305626	35.939607	9.515245	-22.978626	
6.3500	32.330957	22.262944	28.702455	-171.351017	814.040681	-6.829797	12.327399	39.558660	37.675770	45.000000	-30.898847	-1887.798299	-2275.322483	146.715727	-132.223686	1456.449728	45.231329	18.838880	6.927258	8.270273	-45.000000	-38.585594	45.000000	-45.000000	2254.597522	-4772.950097	134.979117	-180.000000	370.425186	35.948328	9.340577	-23.023565	
6.3600	32.508253	21.965689	28.249583	-174.144353	815.209037	-6.792795	12.273771	39.550389	37.730360	45.000000	-30.788531	-1887.930340	-2275.149584	146.681996	-132.423787	1456.601855	45.997023	18.804250	6.756058	8.283089	-45.000000	-38.569991	45.000000	-45.000000	2254.766071	-4772.750207	134.927039	-180.000000	370.536472	35.975908	9.161868	-23.066947	
6.3700	32.687895	21.655883	27.783028	-176.933286	816.363023	-6.757535	12.212672	39.536927	37.787645	45.000000	-30.662681	-1888.066031	-2274.997199	146.653123	-132.599244	1456.750279	46.829224	18.762667	6.585552	8.292537	-45.000000	-38.550646	45.000000	-45.000000	2254.938960	-4772.553295	134.868896	-180.000000	370.637250	36.020208	8.978684	-23.108607	
